<?xml version="1.0" encoding="UTF-8" standalone="no"?><svg xmlns="http://www.w3.org/2000/svg" xmlns:xlink="http://www.w3.org/1999/xlink" contentScriptType="application/ecmascript" contentStyleType="text/css" height="87px" preserveAspectRatio="none" style="width:234px;height:87px;" version="1.1" viewBox="0 0 234 87" width="234px" zoomAndPan="magnify"><defs><filter height="300%" id="ffi15xd5mccw1" width="300%" x="-1" y="-1"><feGaussianBlur result="blurOut" stdDeviation="2.0"/><feColorMatrix in="blurOut" result="blurOut2" type="matrix" values="0 0 0 0 0 0 0 0 0 0 0 0 0 0 0 0 0 0 .4 0"/><feOffset dx="4.0" dy="4.0" in="blurOut2" result="blurOut3"/><feBlend in="SourceGraphic" in2="blurOut3" mode="normal"/></filter></defs><g><!--cluster PackageA--><polygon fill="#FFFFFF" filter="url(#ffi15xd5mccw1)" points="14,16,97,16,104,38.2969,107,38.2969,107,75,14,75,14,16" style="stroke: #000000; stroke-width: 1.5;"/><line style="stroke: #000000; stroke-width: 1.5;" x1="14" x2="104" y1="38.2969" y2="38.2969"/><text fill="#000000" font-family="sans-serif" font-size="14" font-weight="bold" lengthAdjust="spacingAndGlyphs" textLength="77" x="18" y="30.9951">PackageA</text><!--cluster PackageB--><polygon fill="#FFFFFF" filter="url(#ffi15xd5mccw1)" points="120,16,202,16,209,38.2969,212,38.2969,212,75,120,75,120,16" style="stroke: #000000; stroke-width: 1.5;"/><line style="stroke: #000000; stroke-width: 1.5;" x1="120" x2="209" y1="38.2969" y2="38.2969"/><text fill="#000000" font-family="sans-serif" font-size="14" font-weight="bold" lengthAdjust="spacingAndGlyphs" textLength="76" x="124" y="30.9951">PackageB</text><!--class ObjectA--><rect fill="#FEFECE" filter="url(#ffi15xd5mccw1)" height="23.9688" id="ObjectA" style="stroke: #A80036; stroke-width: 1.5;" width="54" x="42" y="43"/><text fill="#000000" font-family="sans-serif" font-size="12" lengthAdjust="spacingAndGlyphs" textLength="48" x="45" y="59.1387">ObjectA</text><!--class ObjectB--><rect fill="#FEFECE" filter="url(#ffi15xd5mccw1)" height="23.9688" id="ObjectB" style="stroke: #A80036; stroke-width: 1.5;" width="54" x="131" y="43"/><text fill="#000000" font-family="sans-serif" font-size="12" lengthAdjust="spacingAndGlyphs" textLength="48" x="134" y="59.1387">ObjectB</text><!--link ObjectA to ObjectB--><path d="M96.1172,55 C105.9979,55 115.8786,55 125.7593,55 " fill="none" id="ObjectA-&gt;ObjectB" style="stroke: #A80036; stroke-width: 1.0;"/><polygon fill="#A80036" points="130.9263,55,121.9263,51,125.9263,55,121.9263,59,130.9263,55" style="stroke: #A80036; stroke-width: 1.0;"/><!--
@startuml dip_before
hide members
hide circle

package PackageA {
	class ObjectA
}
package PackageB {
	class ObjectB
}

ObjectA -> ObjectB
@enduml

PlantUML version 1.2019.09(Tue Aug 27 01:19:51 KST 2019)
(GPL source distribution)
Java Runtime: Java(TM) SE Runtime Environment
JVM: Java HotSpot(TM) 64-Bit Server VM
Java Version: 1.8.0_201-b09
Operating System: Linux
OS Version: 4.15.0-76-generic
Default Encoding: UTF-8
Language: en
Country: US
--></g></svg>