<?xml version="1.0" encoding="UTF-8" standalone="no"?><svg xmlns="http://www.w3.org/2000/svg" xmlns:xlink="http://www.w3.org/1999/xlink" contentScriptType="application/ecmascript" contentStyleType="text/css" height="171px" preserveAspectRatio="none" style="width:232px;height:171px;" version="1.1" viewBox="0 0 232 171" width="232px" zoomAndPan="magnify"><defs><filter height="300%" id="f18cix23v872hx" width="300%" x="-1" y="-1"><feGaussianBlur result="blurOut" stdDeviation="2.0"/><feColorMatrix in="blurOut" result="blurOut2" type="matrix" values="0 0 0 0 0 0 0 0 0 0 0 0 0 0 0 0 0 0 .4 0"/><feOffset dx="4.0" dy="4.0" in="blurOut2" result="blurOut3"/><feBlend in="SourceGraphic" in2="blurOut3" mode="normal"/></filter></defs><g><!--cluster PackageA--><polygon fill="#FFFFFF" filter="url(#f18cix23v872hx)" points="14,16,97,16,104,38.2969,107,38.2969,107,159,14,159,14,16" style="stroke: #000000; stroke-width: 1.5;"/><line style="stroke: #000000; stroke-width: 1.5;" x1="14" x2="104" y1="38.2969" y2="38.2969"/><text fill="#000000" font-family="sans-serif" font-size="14" font-weight="bold" lengthAdjust="spacingAndGlyphs" textLength="77" x="18" y="30.9951">PackageA</text><!--cluster PackageB--><polygon fill="#FFFFFF" filter="url(#f18cix23v872hx)" points="118,100,200,100,207,122.2969,210,122.2969,210,159,118,159,118,100" style="stroke: #000000; stroke-width: 1.5;"/><line style="stroke: #000000; stroke-width: 1.5;" x1="118" x2="207" y1="122.2969" y2="122.2969"/><text fill="#000000" font-family="sans-serif" font-size="14" font-weight="bold" lengthAdjust="spacingAndGlyphs" textLength="76" x="122" y="114.9951">PackageB</text><!--class ObjectA--><rect fill="#FEFECE" filter="url(#f18cix23v872hx)" height="23.9688" id="ObjectA" style="stroke: #A80036; stroke-width: 1.5;" width="54" x="33" y="43"/><text fill="#000000" font-family="sans-serif" font-size="12" lengthAdjust="spacingAndGlyphs" textLength="48" x="36" y="59.1387">ObjectA</text><!--class InterfaceA--><rect fill="#FEFECE" filter="url(#f18cix23v872hx)" height="23.9688" id="InterfaceA" style="stroke: #A80036; stroke-width: 1.5;" width="71" x="24.5" y="127"/><text fill="#000000" font-family="sans-serif" font-size="12" font-style="italic" lengthAdjust="spacingAndGlyphs" textLength="65" x="27.5" y="143.1387">InterfaceA</text><!--class ObjectB--><rect fill="#FEFECE" filter="url(#f18cix23v872hx)" height="23.9688" id="ObjectB" style="stroke: #A80036; stroke-width: 1.5;" width="54" x="131" y="127"/><text fill="#000000" font-family="sans-serif" font-size="12" lengthAdjust="spacingAndGlyphs" textLength="48" x="134" y="143.1387">ObjectB</text><!--link ObjectA to InterfaceA--><path d="M60,67.0352 C60,81.3818 60,105.4615 60,121.777 " fill="none" id="ObjectA-&gt;InterfaceA" style="stroke: #A80036; stroke-width: 1.0;"/><polygon fill="#A80036" points="60,126.9872,64,117.9872,60,121.9872,56,117.9872,60,126.9872" style="stroke: #A80036; stroke-width: 1.0;"/><!--reverse link InterfaceA to ObjectB--><path d="M115.619,139 C120.6462,139 125.6735,139 130.7007,139 " fill="none" id="InterfaceA&lt;-ObjectB" style="stroke: #A80036; stroke-width: 1.0;"/><polygon fill="none" points="115.6016,145.9999,95.6016,139,115.6015,131.9999,115.6016,145.9999" style="stroke: #A80036; stroke-width: 1.0;"/><!--
@startuml dip_after

hide members
hide circle

package PackageA {
	class ObjectA
	interface InterfaceA
}
package PackageB {
	class ObjectB
}

ObjectA -down-> InterfaceA
InterfaceA <|- ObjectB
@enduml

PlantUML version 1.2019.09(Tue Aug 27 01:19:51 KST 2019)
(GPL source distribution)
Java Runtime: Java(TM) SE Runtime Environment
JVM: Java HotSpot(TM) 64-Bit Server VM
Java Version: 1.8.0_201-b09
Operating System: Linux
OS Version: 4.15.0-76-generic
Default Encoding: UTF-8
Language: en
Country: US
--></g></svg>