<?xml version="1.0" encoding="UTF-8" standalone="no"?><svg xmlns="http://www.w3.org/2000/svg" xmlns:xlink="http://www.w3.org/1999/xlink" contentScriptType="application/ecmascript" contentStyleType="text/css" height="448px" preserveAspectRatio="none" style="width:522px;height:448px;" version="1.1" viewBox="0 0 522 448" width="522px" zoomAndPan="magnify"><defs><filter height="300%" id="f1con87ykhklr8" width="300%" x="-1" y="-1"><feGaussianBlur result="blurOut" stdDeviation="2.0"/><feColorMatrix in="blurOut" result="blurOut2" type="matrix" values="0 0 0 0 0 0 0 0 0 0 0 0 0 0 0 0 0 0 .4 0"/><feOffset dx="4.0" dy="4.0" in="blurOut2" result="blurOut3"/><feBlend in="SourceGraphic" in2="blurOut3" mode="normal"/></filter></defs><g><line style="stroke: #A80036; stroke-width: 1.0; stroke-dasharray: 5.0,5.0;" x1="36" x2="36" y1="38.2969" y2="407.8906"/><line style="stroke: #A80036; stroke-width: 1.0; stroke-dasharray: 5.0,5.0;" x1="162.5" x2="162.5" y1="38.2969" y2="407.8906"/><line style="stroke: #A80036; stroke-width: 1.0; stroke-dasharray: 5.0,5.0;" x1="256.5" x2="256.5" y1="38.2969" y2="407.8906"/><line style="stroke: #A80036; stroke-width: 1.0; stroke-dasharray: 5.0,5.0;" x1="400.5" x2="400.5" y1="38.2969" y2="407.8906"/><line style="stroke: #A80036; stroke-width: 1.0; stroke-dasharray: 5.0,5.0;" x1="480.5" x2="480.5" y1="38.2969" y2="407.8906"/><rect fill="#FEFECE" filter="url(#f1con87ykhklr8)" height="30.2969" style="stroke: #A80036; stroke-width: 1.5;" width="53" x="8" y="3"/><text fill="#000000" font-family="sans-serif" font-size="14" lengthAdjust="spacingAndGlyphs" textLength="39" x="15" y="22.9951">Client</text><rect fill="#FEFECE" filter="url(#f1con87ykhklr8)" height="30.2969" style="stroke: #A80036; stroke-width: 1.5;" width="53" x="8" y="406.8906"/><text fill="#000000" font-family="sans-serif" font-size="14" lengthAdjust="spacingAndGlyphs" textLength="39" x="15" y="426.8857">Client</text><rect fill="#FEFECE" filter="url(#f1con87ykhklr8)" height="30.2969" style="stroke: #A80036; stroke-width: 1.5;" width="80" x="120.5" y="3"/><text fill="#000000" font-family="sans-serif" font-size="14" lengthAdjust="spacingAndGlyphs" textLength="66" x="127.5" y="22.9951">ElementA</text><rect fill="#FEFECE" filter="url(#f1con87ykhklr8)" height="30.2969" style="stroke: #A80036; stroke-width: 1.5;" width="80" x="120.5" y="406.8906"/><text fill="#000000" font-family="sans-serif" font-size="14" lengthAdjust="spacingAndGlyphs" textLength="66" x="127.5" y="426.8857">ElementA</text><rect fill="#FEFECE" filter="url(#f1con87ykhklr8)" height="30.2969" style="stroke: #A80036; stroke-width: 1.5;" width="81" x="214.5" y="3"/><text fill="#000000" font-family="sans-serif" font-size="14" lengthAdjust="spacingAndGlyphs" textLength="67" x="221.5" y="22.9951">ElementB</text><rect fill="#FEFECE" filter="url(#f1con87ykhklr8)" height="30.2969" style="stroke: #A80036; stroke-width: 1.5;" width="81" x="214.5" y="406.8906"/><text fill="#000000" font-family="sans-serif" font-size="14" lengthAdjust="spacingAndGlyphs" textLength="67" x="221.5" y="426.8857">ElementB</text><rect fill="#FEFECE" filter="url(#f1con87ykhklr8)" height="30.2969" style="stroke: #A80036; stroke-width: 1.5;" width="65" x="366.5" y="3"/><text fill="#000000" font-family="sans-serif" font-size="14" lengthAdjust="spacingAndGlyphs" textLength="51" x="373.5" y="22.9951">VisitorA</text><rect fill="#FEFECE" filter="url(#f1con87ykhklr8)" height="30.2969" style="stroke: #A80036; stroke-width: 1.5;" width="65" x="366.5" y="406.8906"/><text fill="#000000" font-family="sans-serif" font-size="14" lengthAdjust="spacingAndGlyphs" textLength="51" x="373.5" y="426.8857">VisitorA</text><rect fill="#FEFECE" filter="url(#f1con87ykhklr8)" height="30.2969" style="stroke: #A80036; stroke-width: 1.5;" width="66" x="445.5" y="3"/><text fill="#000000" font-family="sans-serif" font-size="14" lengthAdjust="spacingAndGlyphs" textLength="52" x="452.5" y="22.9951">VisitorB</text><rect fill="#FEFECE" filter="url(#f1con87ykhklr8)" height="30.2969" style="stroke: #A80036; stroke-width: 1.5;" width="66" x="445.5" y="406.8906"/><text fill="#000000" font-family="sans-serif" font-size="14" lengthAdjust="spacingAndGlyphs" textLength="52" x="452.5" y="426.8857">VisitorB</text><polygon fill="#A80036" points="150.5,65.4297,160.5,69.4297,150.5,73.4297,154.5,69.4297" style="stroke: #A80036; stroke-width: 1.0;"/><line style="stroke: #A80036; stroke-width: 1.0;" x1="36.5" x2="156.5" y1="69.4297" y2="69.4297"/><text fill="#000000" font-family="sans-serif" font-size="13" lengthAdjust="spacingAndGlyphs" textLength="102" x="43.5" y="64.3638">accept(VisitorA)</text><polygon fill="#A80036" points="389,94.5625,399,98.5625,389,102.5625,393,98.5625" style="stroke: #A80036; stroke-width: 1.0;"/><line style="stroke: #A80036; stroke-width: 1.0;" x1="162.5" x2="395" y1="98.5625" y2="98.5625"/><text fill="#000000" font-family="sans-serif" font-size="13" lengthAdjust="spacingAndGlyphs" textLength="58" x="169.5" y="93.4966">visit(this)</text><polygon fill="#A80036" points="173.5,123.6953,163.5,127.6953,173.5,131.6953,169.5,127.6953" style="stroke: #A80036; stroke-width: 1.0;"/><line style="stroke: #A80036; stroke-width: 1.0;" x1="167.5" x2="400" y1="127.6953" y2="127.6953"/><text fill="#000000" font-family="sans-serif" font-size="13" lengthAdjust="spacingAndGlyphs" textLength="120" x="179.5" y="122.6294">/* Do something */</text><polygon fill="#A80036" points="150.5,152.8281,160.5,156.8281,150.5,160.8281,154.5,156.8281" style="stroke: #A80036; stroke-width: 1.0;"/><line style="stroke: #A80036; stroke-width: 1.0;" x1="36.5" x2="156.5" y1="156.8281" y2="156.8281"/><text fill="#000000" font-family="sans-serif" font-size="13" lengthAdjust="spacingAndGlyphs" textLength="102" x="43.5" y="151.7622">accept(VisitorB)</text><polygon fill="#A80036" points="468.5,181.9609,478.5,185.9609,468.5,189.9609,472.5,185.9609" style="stroke: #A80036; stroke-width: 1.0;"/><line style="stroke: #A80036; stroke-width: 1.0;" x1="162.5" x2="474.5" y1="185.9609" y2="185.9609"/><text fill="#000000" font-family="sans-serif" font-size="13" lengthAdjust="spacingAndGlyphs" textLength="58" x="169.5" y="180.895">visit(this)</text><polygon fill="#A80036" points="173.5,211.0938,163.5,215.0938,173.5,219.0938,169.5,215.0938" style="stroke: #A80036; stroke-width: 1.0;"/><line style="stroke: #A80036; stroke-width: 1.0;" x1="167.5" x2="479.5" y1="215.0938" y2="215.0938"/><text fill="#000000" font-family="sans-serif" font-size="13" lengthAdjust="spacingAndGlyphs" textLength="120" x="179.5" y="210.0278">/* Do something */</text><polygon fill="#A80036" points="245,240.2266,255,244.2266,245,248.2266,249,244.2266" style="stroke: #A80036; stroke-width: 1.0;"/><line style="stroke: #A80036; stroke-width: 1.0;" x1="36.5" x2="251" y1="244.2266" y2="244.2266"/><text fill="#000000" font-family="sans-serif" font-size="13" lengthAdjust="spacingAndGlyphs" textLength="102" x="43.5" y="239.1606">accept(VisitorA)</text><polygon fill="#A80036" points="389,269.3594,399,273.3594,389,277.3594,393,273.3594" style="stroke: #A80036; stroke-width: 1.0;"/><line style="stroke: #A80036; stroke-width: 1.0;" x1="257" x2="395" y1="273.3594" y2="273.3594"/><text fill="#000000" font-family="sans-serif" font-size="13" lengthAdjust="spacingAndGlyphs" textLength="58" x="264" y="268.2935">visit(this)</text><polygon fill="#A80036" points="268,298.4922,258,302.4922,268,306.4922,264,302.4922" style="stroke: #A80036; stroke-width: 1.0;"/><line style="stroke: #A80036; stroke-width: 1.0;" x1="262" x2="400" y1="302.4922" y2="302.4922"/><text fill="#000000" font-family="sans-serif" font-size="13" lengthAdjust="spacingAndGlyphs" textLength="120" x="274" y="297.4263">/* Do something */</text><polygon fill="#A80036" points="245,327.625,255,331.625,245,335.625,249,331.625" style="stroke: #A80036; stroke-width: 1.0;"/><line style="stroke: #A80036; stroke-width: 1.0;" x1="36.5" x2="251" y1="331.625" y2="331.625"/><text fill="#000000" font-family="sans-serif" font-size="13" lengthAdjust="spacingAndGlyphs" textLength="102" x="43.5" y="326.5591">accept(VisitorB)</text><polygon fill="#A80036" points="468.5,356.7578,478.5,360.7578,468.5,364.7578,472.5,360.7578" style="stroke: #A80036; stroke-width: 1.0;"/><line style="stroke: #A80036; stroke-width: 1.0;" x1="257" x2="474.5" y1="360.7578" y2="360.7578"/><text fill="#000000" font-family="sans-serif" font-size="13" lengthAdjust="spacingAndGlyphs" textLength="58" x="264" y="355.6919">visit(this)</text><polygon fill="#A80036" points="268,385.8906,258,389.8906,268,393.8906,264,389.8906" style="stroke: #A80036; stroke-width: 1.0;"/><line style="stroke: #A80036; stroke-width: 1.0;" x1="262" x2="479.5" y1="389.8906" y2="389.8906"/><text fill="#000000" font-family="sans-serif" font-size="13" lengthAdjust="spacingAndGlyphs" textLength="120" x="274" y="384.8247">/* Do something */</text><!--
@startuml visitor_seq

participant Client order 1
participant ElementA order 2
participant ElementB order 3
participant VisitorA order 4
participant VisitorB order 5

Client -> ElementA : accept(VisitorA)
ElementA -> VisitorA : visit(this)
VisitorA -> ElementA : /* Do something */

Client -> ElementA : accept(VisitorB)
ElementA -> VisitorB : visit(this)
VisitorB -> ElementA : /* Do something */

Client -> ElementB : accept(VisitorA)
ElementB -> VisitorA : visit(this)
VisitorA -> ElementB : /* Do something */

Client -> ElementB : accept(VisitorB)
ElementB -> VisitorB : visit(this)
VisitorB -> ElementB : /* Do something */

@enduml

PlantUML version 1.2019.09(Tue Aug 27 01:19:51 KST 2019)
(GPL source distribution)
Java Runtime: Java(TM) SE Runtime Environment
JVM: Java HotSpot(TM) 64-Bit Server VM
Java Version: 1.8.0_201-b09
Operating System: Linux
OS Version: 4.15.0-76-generic
Default Encoding: UTF-8
Language: en
Country: US
--></g></svg>