<?xml version="1.0" encoding="UTF-8" standalone="no"?><svg xmlns="http://www.w3.org/2000/svg" xmlns:xlink="http://www.w3.org/1999/xlink" contentScriptType="application/ecmascript" contentStyleType="text/css" height="332px" preserveAspectRatio="none" style="width:592px;height:332px;" version="1.1" viewBox="0 0 592 332" width="592px" zoomAndPan="magnify"><defs><filter height="300%" id="fldp3haesz8x9" width="300%" x="-1" y="-1"><feGaussianBlur result="blurOut" stdDeviation="2.0"/><feColorMatrix in="blurOut" result="blurOut2" type="matrix" values="0 0 0 0 0 0 0 0 0 0 0 0 0 0 0 0 0 0 .4 0"/><feOffset dx="4.0" dy="4.0" in="blurOut2" result="blurOut3"/><feBlend in="SourceGraphic" in2="blurOut3" mode="normal"/></filter></defs><g><!--class Element--><rect fill="#FEFECE" filter="url(#fldp3haesz8x9)" height="60.8047" id="Element" style="stroke: #A80036; stroke-width: 1.5;" width="93" x="167" y="14.5"/><ellipse cx="186.5" cy="30.5" fill="#B4A7E5" rx="11" ry="11" style="stroke: #A80036; stroke-width: 1.0;"/><path d="M182.4219,26.2656 L182.4219,24.1094 L189.8125,24.1094 L189.8125,26.2656 L187.3438,26.2656 L187.3438,34.3438 L189.8125,34.3438 L189.8125,36.5 L182.4219,36.5 L182.4219,34.3438 L184.8906,34.3438 L184.8906,26.2656 L182.4219,26.2656 Z "/><text fill="#000000" font-family="sans-serif" font-size="12" font-style="italic" lengthAdjust="spacingAndGlyphs" textLength="51" x="201.5" y="34.6543">Element</text><line style="stroke: #A80036; stroke-width: 1.5;" x1="168" x2="259" y1="46.5" y2="46.5"/><line style="stroke: #A80036; stroke-width: 1.5;" x1="168" x2="259" y1="54.5" y2="54.5"/><text fill="#000000" font-family="sans-serif" font-size="11" lengthAdjust="spacingAndGlyphs" textLength="81" x="173" y="68.7104">accept(Visitor)</text><!--class Visitor--><rect fill="#FEFECE" filter="url(#fldp3haesz8x9)" height="73.6094" id="Visitor" style="stroke: #A80036; stroke-width: 1.5;" width="97" x="436" y="8"/><ellipse cx="463.15" cy="24" fill="#B4A7E5" rx="11" ry="11" style="stroke: #A80036; stroke-width: 1.0;"/><path d="M459.0719,19.7656 L459.0719,17.6094 L466.4625,17.6094 L466.4625,19.7656 L463.9938,19.7656 L463.9938,27.8438 L466.4625,27.8438 L466.4625,30 L459.0719,30 L459.0719,27.8438 L461.5406,27.8438 L461.5406,19.7656 L459.0719,19.7656 Z "/><text fill="#000000" font-family="sans-serif" font-size="12" font-style="italic" lengthAdjust="spacingAndGlyphs" textLength="38" x="479.85" y="28.1543">Visitor</text><line style="stroke: #A80036; stroke-width: 1.5;" x1="437" x2="532" y1="40" y2="40"/><line style="stroke: #A80036; stroke-width: 1.5;" x1="437" x2="532" y1="48" y2="48"/><text fill="#000000" font-family="sans-serif" font-size="11" lengthAdjust="spacingAndGlyphs" textLength="84" x="442" y="62.2104">visit(ElementA)</text><text fill="#000000" font-family="sans-serif" font-size="11" lengthAdjust="spacingAndGlyphs" textLength="85" x="442" y="75.0151">visit(ElementB)</text><!--class ElementA--><rect fill="#FEFECE" filter="url(#fldp3haesz8x9)" height="48" id="ElementA" style="stroke: #A80036; stroke-width: 1.5;" width="91" x="110" y="142"/><ellipse cx="125" cy="158" fill="#ADD1B2" rx="11" ry="11" style="stroke: #A80036; stroke-width: 1.0;"/><path d="M127.9688,163.6406 Q127.3906,163.9375 126.75,164.0859 Q126.1094,164.2344 125.4063,164.2344 Q122.9063,164.2344 121.5859,162.5859 Q120.2656,160.9375 120.2656,157.8125 Q120.2656,154.6875 121.5859,153.0313 Q122.9063,151.375 125.4063,151.375 Q126.1094,151.375 126.7578,151.5313 Q127.4063,151.6875 127.9688,151.9844 L127.9688,154.7031 Q127.3438,154.125 126.75,153.8516 Q126.1563,153.5781 125.5313,153.5781 Q124.1875,153.5781 123.5,154.6484 Q122.8125,155.7188 122.8125,157.8125 Q122.8125,159.9063 123.5,160.9766 Q124.1875,162.0469 125.5313,162.0469 Q126.1563,162.0469 126.75,161.7734 Q127.3438,161.5 127.9688,160.9219 L127.9688,163.6406 Z "/><text fill="#000000" font-family="sans-serif" font-size="12" lengthAdjust="spacingAndGlyphs" textLength="59" x="139" y="162.1543">ElementA</text><line style="stroke: #A80036; stroke-width: 1.5;" x1="111" x2="200" y1="174" y2="174"/><line style="stroke: #A80036; stroke-width: 1.5;" x1="111" x2="200" y1="182" y2="182"/><!--class ElementB--><rect fill="#FEFECE" filter="url(#fldp3haesz8x9)" height="48" id="ElementB" style="stroke: #A80036; stroke-width: 1.5;" width="91" x="262" y="142"/><ellipse cx="277" cy="158" fill="#ADD1B2" rx="11" ry="11" style="stroke: #A80036; stroke-width: 1.0;"/><path d="M279.9688,163.6406 Q279.3906,163.9375 278.75,164.0859 Q278.1094,164.2344 277.4063,164.2344 Q274.9063,164.2344 273.5859,162.5859 Q272.2656,160.9375 272.2656,157.8125 Q272.2656,154.6875 273.5859,153.0313 Q274.9063,151.375 277.4063,151.375 Q278.1094,151.375 278.7578,151.5313 Q279.4063,151.6875 279.9688,151.9844 L279.9688,154.7031 Q279.3438,154.125 278.75,153.8516 Q278.1563,153.5781 277.5313,153.5781 Q276.1875,153.5781 275.5,154.6484 Q274.8125,155.7188 274.8125,157.8125 Q274.8125,159.9063 275.5,160.9766 Q276.1875,162.0469 277.5313,162.0469 Q278.1563,162.0469 278.75,161.7734 Q279.3438,161.5 279.9688,160.9219 L279.9688,163.6406 Z "/><text fill="#000000" font-family="sans-serif" font-size="12" lengthAdjust="spacingAndGlyphs" textLength="59" x="291" y="162.1543">ElementB</text><line style="stroke: #A80036; stroke-width: 1.5;" x1="263" x2="352" y1="174" y2="174"/><line style="stroke: #A80036; stroke-width: 1.5;" x1="263" x2="352" y1="182" y2="182"/><!--class VisitorA--><rect fill="#FEFECE" filter="url(#fldp3haesz8x9)" height="48" id="VisitorA" style="stroke: #A80036; stroke-width: 1.5;" width="79" x="388" y="142"/><ellipse cx="403" cy="158" fill="#ADD1B2" rx="11" ry="11" style="stroke: #A80036; stroke-width: 1.0;"/><path d="M405.9688,163.6406 Q405.3906,163.9375 404.75,164.0859 Q404.1094,164.2344 403.4063,164.2344 Q400.9063,164.2344 399.5859,162.5859 Q398.2656,160.9375 398.2656,157.8125 Q398.2656,154.6875 399.5859,153.0313 Q400.9063,151.375 403.4063,151.375 Q404.1094,151.375 404.7578,151.5313 Q405.4063,151.6875 405.9688,151.9844 L405.9688,154.7031 Q405.3438,154.125 404.75,153.8516 Q404.1563,153.5781 403.5313,153.5781 Q402.1875,153.5781 401.5,154.6484 Q400.8125,155.7188 400.8125,157.8125 Q400.8125,159.9063 401.5,160.9766 Q402.1875,162.0469 403.5313,162.0469 Q404.1563,162.0469 404.75,161.7734 Q405.3438,161.5 405.9688,160.9219 L405.9688,163.6406 Z "/><text fill="#000000" font-family="sans-serif" font-size="12" lengthAdjust="spacingAndGlyphs" textLength="47" x="417" y="162.1543">VisitorA</text><line style="stroke: #A80036; stroke-width: 1.5;" x1="389" x2="466" y1="174" y2="174"/><line style="stroke: #A80036; stroke-width: 1.5;" x1="389" x2="466" y1="182" y2="182"/><path d="M6,250 L6,320.5313 A0,0 0 0 0 6,320.5313 L201,320.5313 A0,0 0 0 0 201,320.5313 L201,260 L191,250 L123.1392,250 L144.977,190.1826 L115.1392,250 L6,250 A0,0 0 0 0 6,250 " fill="#FBFB77" filter="url(#fldp3haesz8x9)" style="stroke: #A80036; stroke-width: 1.0;"/><path d="M191,250 L191,260 L201,260 L191,250 " fill="#FBFB77" style="stroke: #A80036; stroke-width: 1.0;"/><text fill="#000000" font-family="sans-serif" font-size="13" lengthAdjust="spacingAndGlyphs" textLength="174" x="12" y="267.0669">ElementA::accept(Visitor v)</text><text fill="#000000" font-family="sans-serif" font-size="13" lengthAdjust="spacingAndGlyphs" textLength="8" x="12" y="282.1997">{</text><text fill="#000000" font-family="sans-serif" font-size="13" lengthAdjust="spacingAndGlyphs" textLength="73" x="44" y="297.3325">v.visit(this);</text><text fill="#000000" font-family="sans-serif" font-size="13" lengthAdjust="spacingAndGlyphs" textLength="8" x="12" y="312.4653">}</text><path d="M236,250 L236,320.5313 A0,0 0 0 0 236,320.5313 L431,320.5313 A0,0 0 0 0 431,320.5313 L431,260 L421,250 L329.6804,250 L312.7615,190.1826 L321.6804,250 L236,250 A0,0 0 0 0 236,250 " fill="#FBFB77" filter="url(#fldp3haesz8x9)" style="stroke: #A80036; stroke-width: 1.0;"/><path d="M421,250 L421,260 L431,260 L421,250 " fill="#FBFB77" style="stroke: #A80036; stroke-width: 1.0;"/><text fill="#000000" font-family="sans-serif" font-size="13" lengthAdjust="spacingAndGlyphs" textLength="174" x="242" y="267.0669">ElementB::accept(Visitor v)</text><text fill="#000000" font-family="sans-serif" font-size="13" lengthAdjust="spacingAndGlyphs" textLength="8" x="242" y="282.1997">{</text><text fill="#000000" font-family="sans-serif" font-size="13" lengthAdjust="spacingAndGlyphs" textLength="73" x="274" y="297.3325">v.visit(this);</text><text fill="#000000" font-family="sans-serif" font-size="13" lengthAdjust="spacingAndGlyphs" textLength="8" x="242" y="312.4653">}</text><!--class VisitorB--><rect fill="#FEFECE" filter="url(#fldp3haesz8x9)" height="48" id="VisitorB" style="stroke: #A80036; stroke-width: 1.5;" width="79" x="502" y="142"/><ellipse cx="517" cy="158" fill="#ADD1B2" rx="11" ry="11" style="stroke: #A80036; stroke-width: 1.0;"/><path d="M519.9688,163.6406 Q519.3906,163.9375 518.75,164.0859 Q518.1094,164.2344 517.4063,164.2344 Q514.9063,164.2344 513.5859,162.5859 Q512.2656,160.9375 512.2656,157.8125 Q512.2656,154.6875 513.5859,153.0313 Q514.9063,151.375 517.4063,151.375 Q518.1094,151.375 518.7578,151.5313 Q519.4063,151.6875 519.9688,151.9844 L519.9688,154.7031 Q519.3438,154.125 518.75,153.8516 Q518.1563,153.5781 517.5313,153.5781 Q516.1875,153.5781 515.5,154.6484 Q514.8125,155.7188 514.8125,157.8125 Q514.8125,159.9063 515.5,160.9766 Q516.1875,162.0469 517.5313,162.0469 Q518.1563,162.0469 518.75,161.7734 Q519.3438,161.5 519.9688,160.9219 L519.9688,163.6406 Z "/><text fill="#000000" font-family="sans-serif" font-size="12" lengthAdjust="spacingAndGlyphs" textLength="47" x="531" y="162.1543">VisitorB</text><line style="stroke: #A80036; stroke-width: 1.5;" x1="503" x2="580" y1="174" y2="174"/><line style="stroke: #A80036; stroke-width: 1.5;" x1="503" x2="580" y1="182" y2="182"/><!--reverse link Element to ElementA--><path d="M190.1124,93.7913 C182.1633,110.3749 173.6291,128.1789 167.0239,141.9587 " fill="none" id="Element&lt;-ElementA" style="stroke: #A80036; stroke-width: 1.0;"/><polygon fill="none" points="183.9069,90.5428,198.8642,75.5334,196.5315,96.5943,183.9069,90.5428" style="stroke: #A80036; stroke-width: 1.0;"/><!--reverse link Element to ElementB--><path d="M249.5309,91.3802 C262.934,108.6331 277.5975,127.5085 288.8233,141.9587 " fill="none" id="Element&lt;-ElementB" style="stroke: #A80036; stroke-width: 1.0;"/><polygon fill="none" points="243.962,95.6219,237.2202,75.5334,255.0179,87.0331,243.962,95.6219" style="stroke: #A80036; stroke-width: 1.0;"/><!--reverse link Visitor to VisitorA--><path d="M458.199,100.832 C451.3804,115.3065 444.393,130.1394 438.8103,141.9903 " fill="none" id="Visitor&lt;-VisitorA" style="stroke: #A80036; stroke-width: 1.0;"/><polygon fill="none" points="452.0773,97.4012,466.933,82.2913,464.7424,103.3674,452.0773,97.4012" style="stroke: #A80036; stroke-width: 1.0;"/><!--reverse link Visitor to VisitorB--><path d="M510.801,100.832 C517.6196,115.3065 524.607,130.1394 530.1897,141.9903 " fill="none" id="Visitor&lt;-VisitorB" style="stroke: #A80036; stroke-width: 1.0;"/><polygon fill="none" points="504.2576,103.3674,502.067,82.2913,516.9227,97.4012,504.2576,103.3674" style="stroke: #A80036; stroke-width: 1.0;"/><!--
@startuml visitor_class

interface Element
{
	accept(Visitor)
}

interface Visitor
{
	visit(ElementA)
	visit(ElementB)
}

class ElementA
{
}

class ElementB
{
}

class VisitorA
{
}

Element <|-down- ElementA
Element <|-down- ElementB
note bottom of ElementA : ElementA::accept(Visitor v)\n{\n\tv.visit(this);\n}
note bottom of ElementB : ElementB::accept(Visitor v)\n{\n\tv.visit(this);\n}

Visitor <|-down- VisitorA
Visitor <|-down- VisitorB
@enduml

PlantUML version 1.2019.09(Tue Aug 27 01:19:51 KST 2019)
(GPL source distribution)
Java Runtime: Java(TM) SE Runtime Environment
JVM: Java HotSpot(TM) 64-Bit Server VM
Java Version: 1.8.0_201-b09
Operating System: Linux
OS Version: 4.15.0-76-generic
Default Encoding: UTF-8
Language: en
Country: US
--></g></svg>